<svg width="196" height="41" viewBox="0 0 196 41" fill="none" xmlns="http://www.w3.org/2000/svg">
<path d="M23.4509 0.288574C26.1042 0.288574 28.7576 0.288574 31.4913 0.288574C33.9235 6.92184 36.3557 13.5551 38.8616 20.3894C39.746 18.1783 40.6304 15.9672 41.5417 13.6891C42.4107 11.6667 43.3157 9.66516 44.2218 7.65887C46.654 7.65887 49.0862 7.65887 51.5921 7.65887C51.5921 5.22667 51.5921 2.79447 51.5921 0.288574C58.0042 0.288574 64.4164 0.288574 71.0229 0.288574C71.0229 2.72077 71.0229 5.15297 71.0229 7.65887C67.264 7.65887 63.5051 7.65887 59.6324 7.65887C59.6324 10.5333 59.6324 13.4077 59.6324 16.3692C64.939 16.3692 70.2456 16.3692 75.713 16.3692C75.713 11.0626 75.713 5.75599 75.713 0.288574C83.0833 0.288574 83.0833 0.288574 85.4494 2.54992C86.1379 3.56603 86.8 4.60046 87.4385 5.64879C87.7964 6.18909 88.1542 6.72939 88.5229 7.28607C89.2634 8.40631 89.9939 9.53325 90.7144 10.6665C92.0782 12.7926 93.5156 14.8618 94.9606 16.9332C96.8391 19.6279 98.682 22.3465 100.504 25.0796C100.725 16.8985 100.946 8.71751 101.174 0.288574C103.606 0.288574 106.038 0.288574 108.544 0.288574C108.544 13.334 108.544 26.3794 108.544 39.8202C100.504 39.8202 101.19 39.6075 99.164 37.8565C98.6132 37.0472 98.0734 36.4319 97.5727 35.5906C97.2812 35.1499 96.9898 34.7092 96.6895 34.2551C96.0547 33.2933 95.4303 32.3247 94.815 31.3503C93.3514 29.0628 91.7983 26.8399 90.2518 24.608C88.0567 21.4346 85.8937 18.2396 83.7534 15.0292C83.5323 20.1147 83.3111 25.2002 83.0833 30.4398C80.6511 30.4398 78.2189 30.4398 75.713 30.4398C75.713 28.2287 75.713 26.0176 75.713 23.7395C70.4064 23.7395 65.0998 23.7395 59.6324 23.7395C59.6324 26.6139 59.6324 29.4883 59.6324 32.4499C63.1701 32.4499 66.7079 32.4499 70.3528 32.4499C70.3528 34.8821 70.3528 37.3143 70.3528 39.8202C64.1618 39.8202 57.9707 39.8202 51.5921 39.8202C51.371 30.0914 51.1499 20.3626 50.922 10.339C50.1559 12.3549 49.3898 14.3708 48.6005 16.4477C47.86 18.3947 47.1193 20.3417 46.3786 22.2886C45.8629 23.6442 45.3476 25 44.8324 26.3558C44.093 28.3019 43.3527 30.2477 42.6121 32.1934C42.3811 32.802 42.1501 33.4106 41.912 34.0377C41.6974 34.601 41.4829 35.1643 41.2618 35.7447C40.9783 36.4901 40.9783 36.4901 40.6892 37.2506C40.2016 38.4801 40.2016 38.4801 39.5316 39.8202C39.0894 39.8202 38.6472 39.8202 38.1915 39.8202C37.9116 39.0679 37.6317 38.3157 37.3434 37.5407C36.2826 34.6914 35.2192 31.8432 34.1552 28.9952C33.6991 27.7734 33.2436 26.5514 32.789 25.329C30.2585 18.528 27.6889 11.7571 24.8481 5.07839C23.4509 1.76564 23.4509 1.76564 23.4509 0.288574Z" fill="#FF4F5A"/>
<path d="M0 0.288574C6.19105 0.288574 12.3821 0.288574 18.7608 0.288574C18.7608 2.72077 18.7608 5.15297 18.7608 7.65887C15.223 7.65887 11.6853 7.65887 8.04032 7.65887C8.04032 10.5333 8.04032 13.4077 8.04032 16.3692C13.1258 16.3692 18.2113 16.3692 23.4509 16.3692C23.4509 18.8014 23.4509 21.2336 23.4509 23.7395C18.3654 23.7395 13.2799 23.7395 8.04032 23.7395C8.04032 26.6139 8.04032 29.4883 8.04032 32.4499C11.5781 32.4499 15.1158 32.4499 18.7608 32.4499C18.7608 34.8821 18.7608 37.3143 18.7608 39.8202C12.5697 39.8202 6.37866 39.8202 0 39.8202C0 26.7747 0 13.7293 0 0.288574Z" fill="#FF4F5A"/>
<path d="M187.733 0.749064C190.089 1.81984 191.954 3.16532 193.467 4.96229C195.172 6.98723 195.705 9.70247 195.648 12.3489C193.384 12.54 191.204 12.6551 188.948 12.3489C188.776 12.14 188.627 11.9578 188.495 11.7953C187.188 10.1839 185.907 8.29387 183.833 8.24327C183.396 8.2326 182.946 8.24896 182.467 8.27513C181.884 8.30701 181.328 8.49507 180.842 8.81892C180.037 9.3555 179.484 10.2205 179.399 11.1841C179.36 11.6266 179.349 11.9657 179.365 12.3487C179.422 13.6566 179.99 14.9956 181.149 15.6051C181.939 16.0208 182.737 16.112 184.09 16.3272C187.211 16.9156 189.438 17.7634 191.398 19.2752C194.155 21.4011 196.028 24.6715 195.999 28.1527C195.987 29.7144 195.742 31.2869 195.351 32.6778C195.25 33.0366 195.106 33.3818 194.921 33.7059C194.428 34.5744 193.892 35.3249 193.294 35.99C190.894 38.66 187.169 39.573 183.587 39.82C183.587 37.3878 183.587 34.9556 183.587 32.4497C183.804 32.3632 184.02 32.2766 184.237 32.19C186.026 31.4743 187.823 30.4398 187.775 28.5133C187.801 26.1954 185.908 24.3669 183.625 23.9673C183.243 23.9004 182.831 23.8439 182.373 23.7812C178.428 23.0807 176.03 21.6665 173.328 18.6723C169.276 12.8206 172.448 3.62884 179.048 0.964557C181.645 -0.0837478 184.603 -0.234671 187.733 0.749064Z" fill="#FF4F5A"/>
<circle cx="151.426" cy="20.1008" r="16.6008" stroke="#FF4F5A" stroke-width="7"/>
<path d="M117.255 15.0292C119.687 15.0292 122.119 15.0292 124.625 15.0292C124.625 23.2102 124.625 31.3912 124.625 39.8202C122.193 39.8202 119.761 39.8202 117.255 39.8202C117.255 31.6391 117.255 23.4581 117.255 15.0292Z" fill="#FF4F5A"/>
<path d="M109.214 0.288574C116.953 0.288574 124.692 0.288574 132.665 0.288574C132.665 2.49966 132.665 4.71075 132.665 6.98884C124.927 6.98884 117.188 6.98884 109.214 6.98884C109.214 4.77775 109.214 2.56667 109.214 0.288574Z" fill="#FF4F5A"/>
<circle cx="151.761" cy="20.4359" r="4.68515" fill="#FF4F5A" stroke="#FF4F5A" stroke-width="2"/>
</svg>
